<svg width="100%" height="100%" viewBox="0 0 24 24" fill="currentColor" xmlns="http://www.w3.org/2000/svg">
<path fill-rule="evenodd" clip-rule="evenodd" d="M10.4945 13.3167L6.94334 18.4973L6.62993 16.7199L5.64513 16.8936L6.22831 20.201L7.21312 20.0273L9.64455 19.5986L9.4709 18.6138L7.8838 18.8937L11.3197 13.8813C10.9983 13.7651 10.7153 13.5689 10.4945 13.3167Z" fill="white"/>
<path fill-rule="evenodd" clip-rule="evenodd" d="M13.1293 13.6509C12.8555 13.8386 12.5327 13.9599 12.184 13.9917L14.8821 19.6306L13.1861 19.0133L12.8441 19.953L16 21.1017L16.342 20.162L17.1864 17.8419L16.2468 17.4999L15.6956 19.0143L13.1293 13.6509Z" fill="white"/>
<path fill-rule="evenodd" clip-rule="evenodd" d="M18.6635 9.36862L18.9769 7.59123L13.856 11.2534C13.7286 10.9371 13.5227 10.6608 13.2625 10.4487L18.2287 6.89713L16.6416 6.61728L16.8153 5.63248L19.2467 6.0612L20.2315 6.23485L19.6483 9.54227L18.6635 9.36862Z" fill="white"/>
<path fill-rule="evenodd" clip-rule="evenodd" d="M10.807 4.85326L9.111 4.23597L11.8709 10.0041C11.5195 10.0265 11.1928 10.1396 10.9139 10.3203L8.29753 4.85227L7.74633 6.36666L6.80664 6.02464L7.65107 3.7046L7.65106 3.7046L7.99308 2.76491L11.149 3.91356L10.807 4.85326Z" fill="white"/>
<path fill-rule="evenodd" clip-rule="evenodd" d="M5.05575 10.3062L3.77955 11.5824L10.058 11.5199C10.0201 11.6737 10 11.8345 10 12C10 12.1797 10.0237 12.3539 10.0682 12.5197L3.99432 12.5801L5.13388 13.7197L4.42677 14.4268L2.68097 12.681L2.68097 12.681L1.97386 11.9739L4.34864 9.59909L5.05575 10.3062Z" fill="white"/>
</svg>
