<svg width="100%" height="100%" viewBox="0 0 24 24" fill="currentColor" xmlns="http://www.w3.org/2000/svg">
<path d="M5.24995 3.92492L10 12L5.24995 20.0751C5.09509 20.3384 4.81246 20.5 4.50702 20.5C3.84039 20.5 3.42609 19.7756 3.76409 19.201L8 12L3.76409 4.79895C3.42609 4.22436 3.84039 3.5 4.50702 3.5C4.81246 3.5 5.09509 3.66165 5.24995 3.92492Z" fill="current"/>
<path d="M10 12L5.24995 3.92492C5.09509 3.66165 4.81246 3.5 4.50702 3.5V3.5C3.84039 3.5 3.42609 4.22436 3.76409 4.79895L8 12M10 12H8M10 12L5.24995 20.0751C5.09509 20.3384 4.81246 20.5 4.50702 20.5V20.5C3.84039 20.5 3.42609 19.7756 3.76409 19.201L8 12" stroke="current"/>
<path d="M18.75 3.92492L14 12L18.75 20.0751C18.9049 20.3384 19.1875 20.5 19.493 20.5C20.1596 20.5 20.5739 19.7756 20.2359 19.201L16 12L20.2359 4.79895C20.5739 4.22436 20.1596 3.5 19.493 3.5C19.1875 3.5 18.9049 3.66165 18.75 3.92492Z" fill="current"/>
<path d="M14 12L18.75 3.92492C18.9049 3.66165 19.1875 3.5 19.493 3.5V3.5C20.1596 3.5 20.5739 4.22436 20.2359 4.79895L16 12M14 12H16M14 12L18.75 20.0751C18.9049 20.3384 19.1875 20.5 19.493 20.5V20.5C20.1596 20.5 20.5739 19.7756 20.2359 19.201L16 12" stroke="current"/>
</svg>
