<svg width="100%" height="100%" viewBox="0 0 24 24" fill="currentColor" xmlns="http://www.w3.org/2000/svg">
<path d="M10.0818 15.9105V15.587C10.0882 14.477 10.1865 13.5921 10.3768 12.9324C10.5734 12.2727 10.8589 11.7399 11.2331 11.3339C11.6073 10.928 12.0577 10.5601 12.5842 10.2302C12.9775 9.9765 13.3295 9.71327 13.6403 9.44051C13.9511 9.16776 14.1985 8.86646 14.3825 8.53661C14.5664 8.20043 14.6584 7.82618 14.6584 7.41388C14.6584 6.9762 14.5537 6.59244 14.3444 6.2626C14.1351 5.93276 13.8528 5.67902 13.4976 5.50142C13.1487 5.32381 12.7618 5.235 12.3368 5.235C11.9245 5.235 11.5344 5.32698 11.1665 5.51093C10.7986 5.68855 10.4973 5.95495 10.2626 6.31017C10.0279 6.65905 9.90104 7.09356 9.88201 7.61368H6C6.03172 6.34505 6.33619 5.29843 6.91341 4.47382C7.49064 3.64288 8.25499 3.02442 9.20646 2.61846C10.1579 2.20615 11.2077 2 12.3558 2C13.6181 2 14.7345 2.20932 15.705 2.62797C16.6755 3.04028 17.4367 3.6397 17.9886 4.42625C18.5404 5.2128 18.8163 6.1611 18.8163 7.27116C18.8163 8.01331 18.6927 8.67299 18.4452 9.25021C18.2042 9.8211 17.8649 10.3286 17.4272 10.7726C16.9895 11.2102 16.4725 11.6067 15.8763 11.9619C15.3752 12.26 14.9629 12.5709 14.6394 12.8944C14.3222 13.2179 14.0843 13.5921 13.9258 14.0171C13.7735 14.4421 13.6942 14.9654 13.6879 15.587V15.9105H10.0818ZM11.9657 22C11.3314 22 10.7891 21.7779 10.3387 21.3339C9.89469 20.8835 9.67586 20.3444 9.68219 19.7164C9.67586 19.0948 9.89469 18.562 10.3387 18.1179C10.7891 17.6739 11.3314 17.4519 11.9657 17.4519C12.5683 17.4519 13.098 17.6739 13.5547 18.1179C14.0114 18.562 14.2429 19.0948 14.2493 19.7164C14.2429 20.135 14.1319 20.5189 13.9162 20.8677C13.7069 21.2103 13.431 21.4861 13.0885 21.6955C12.7459 21.8985 12.3717 22 11.9657 22Z" fill="current"/>
</svg>
