<svg width="100%" height="100%" viewBox="0 0 24 24" fill="none" xmlns="http://www.w3.org/2000/svg">
<path fill-rule="evenodd" clip-rule="evenodd" d="M5 2C4.44772 2 4 2.44772 4 3V21C4 21.5523 4.44772 22 5 22H19C19.5523 22 20 21.5523 20 21V3C20 2.44772 19.5523 2 19 2H5ZM5.5 3C5.22386 3 5 3.22386 5 3.5V20.5C5 20.7761 5.22386 21 5.5 21H18.5C18.7761 21 19 20.7761 19 20.5V3.5C19 3.22386 18.7761 3 18.5 3H5.5Z" fill="gray"/>
<rect x="7" y="6" width="10" height="1" rx="0.5" fill="gray"/>
<rect x="7" y="11" width="10" height="1" rx="0.5" fill="gray"/>
<rect x="7" y="16" width="10" height="1" rx="0.5" fill="gray"/>
</svg>
