<svg width="100%" height="100%" viewBox="0 0 3840 600" fill="none" xmlns="http://www.w3.org/2000/svg">
<path fill-rule="evenodd" clip-rule="evenodd" d="M908 434H514H511V433.977C416.839 432.557 341 364.387 341 280.5C341 195.724 418.455 127 514 127C535.175 127 555.461 130.376 574.213 136.553C598.835 84.8709 652.839 49 715.5 49C791.165 49 854.207 101.305 868.135 170.594C880.845 167.598 894.209 166 908 166C992.5 166 1061 225.994 1061 300C1061 371.951 996.25 430.658 915 433.862V434H908Z" fill="#FFF7FC" fill-opacity="0.75"/>
<path fill-rule="evenodd" clip-rule="evenodd" d="M3148.5 543H2782.5H2781V542.994C2700.23 542.331 2635 488.19 2635 421.5C2635 354.397 2701.04 300 2782.5 300C2794.82 300 2806.79 301.244 2818.22 303.588C2837.81 255.676 2895 221 2962.5 221C3011.09 221 3054.34 238.969 3082.06 266.908C3102.1 257.362 3124.65 252 3148.5 252C3231.62 252 3299 317.143 3299 397.5C3299 474.773 3236.69 537.976 3158 542.715V543H3148.5Z" fill="#FFF7FC" fill-opacity="0.75"/>
</svg>
