<svg width="current" height="current" viewBox="0 0 886 460" fill="none" xmlns="http://www.w3.org/2000/svg">
<path fill-rule="evenodd" clip-rule="evenodd" d="M321.097 285.644C314.374 282.254 306.727 278.393 298.511 274.241C466.536 225.968 481.736 266.314 381.49 331.756C364.96 342.547 341.547 357.415 313.832 373.261L320.883 330.804C316.969 343.797 312.072 360.015 306.861 377.216C295.097 383.835 282.633 390.578 269.651 397.224L278.362 344.766C273.674 360.332 267.574 380.525 261.213 401.493C247.444 408.374 233.154 415.098 218.551 421.416L227.591 366.978C222.803 382.874 216.544 403.594 210.037 425.038C198.996 429.653 187.8 434.013 176.539 438.011L184.436 390.46C180.246 404.37 174.93 421.974 169.306 440.525C144.113 449.095 118.685 455.751 94 459.318C98.8523 425.352 117.63 388.751 147.614 356.948L175.765 366.877C168.285 363.105 159.659 358.75 150.381 354.06C163.912 340.158 179.609 327.234 197.238 315.927L226.536 326.261C219.06 322.491 210.441 318.139 201.17 313.452C214.409 305.274 228.695 298.005 243.932 291.903L274.768 302.779C267.234 298.98 258.539 294.589 249.184 289.86C253.649 288.175 258.193 286.589 262.813 285.11C273.419 281.714 283.534 278.612 293.165 275.792L321.097 285.644Z" fill="#459B01"/>
<path d="M140.963 417.749C225.37 327.948 289.785 301.61 416.078 272.1" stroke="#81CE45" stroke-width="5"/>
<path fill-rule="evenodd" clip-rule="evenodd" d="M311.773 220.825C305.878 214.556 299.174 207.421 291.975 199.751C491.291 213.587 491.844 262.856 358.607 293.953C336.636 299.081 305.681 305.897 269.723 312.081L293.891 269.24C284.609 281.665 273.011 297.167 260.69 313.602C245.47 316.113 229.449 318.482 212.909 320.546L242.769 267.614C231.649 282.498 217.206 301.8 202.178 321.832C184.702 323.839 166.727 325.475 148.575 326.553L179.562 271.623C168.207 286.823 153.386 306.628 138.016 327.114C124.354 327.755 110.627 328.061 96.9702 327.953L124.037 279.972C114.101 293.273 101.51 310.101 88.2195 327.826C57.8134 327.181 27.904 324.39 -9.59269e-05 318.572C18.4877 283.991 52.9607 252.024 97.5921 229.59L123.943 251.257C117.384 244.282 109.824 236.234 101.693 227.57C121.658 217.929 143.567 210.185 166.919 204.933L194.344 227.483C187.789 220.512 180.234 212.47 172.109 203.812C189.524 200.204 207.707 197.982 226.456 197.384L255.321 221.118C248.715 214.093 241.093 205.979 232.895 197.244C238.349 197.179 243.849 197.253 249.389 197.47C262.106 197.968 274.182 198.591 285.626 199.326L311.773 220.825Z" fill="#54B408"/>
<path d="M66.6836 292.286C192.432 228.839 271.905 225.733 419.071 243.406" stroke="#81CE45" stroke-width="5"/>
<path fill-rule="evenodd" clip-rule="evenodd" d="M447.711 194.487C449.649 190.645 451.855 186.275 454.228 181.581C481.812 277.595 458.758 286.28 421.362 228.997C415.195 219.551 406.699 206.173 397.645 190.335L421.906 194.364C414.481 192.128 405.214 189.33 395.385 186.352C391.602 179.63 387.749 172.507 383.952 165.089L413.928 170.067C405.033 167.388 393.494 163.902 381.512 160.267C377.58 152.399 373.738 144.234 370.127 135.889L401.235 141.055C392.152 138.319 380.311 134.742 368.058 131.024C365.42 124.715 362.929 118.317 360.645 111.882L387.817 116.395C379.868 114.001 369.808 110.963 359.208 107.749C354.311 93.3528 350.508 78.8226 348.469 64.717C367.879 67.4898 388.793 78.2201 406.966 95.3535L401.292 111.44C403.448 107.165 405.936 102.237 408.617 96.9347C416.561 104.667 423.946 113.636 430.407 123.71L424.502 140.452C426.656 136.18 429.143 131.255 431.821 125.957C436.494 133.522 440.648 141.685 444.135 150.392L437.92 168.013C440.091 163.708 442.6 158.739 445.302 153.394C446.265 155.945 447.171 158.542 448.017 161.182C449.957 167.242 451.73 173.022 453.341 178.525L447.711 194.487Z" fill="#54B408"/>
<path d="M372.223 91.5531C423.538 139.786 438.588 176.594 455.451 248.762" stroke="#81CE45" stroke-width="5"/>
<path fill-rule="evenodd" clip-rule="evenodd" d="M397.298 198.249C396.066 193.014 394.667 187.057 393.168 180.656C496.727 250.431 481.63 277.272 399.795 252.467C386.301 248.377 367.416 242.392 346.02 234.503L372.489 218.867C363.583 222.691 352.461 227.458 340.656 232.504C331.633 229.106 322.221 225.382 312.623 221.33L345.327 202.011C334.657 206.593 320.807 212.526 306.413 218.673C296.327 214.298 286.086 209.566 275.924 204.477L309.862 184.429C298.966 189.108 284.755 195.196 270.034 201.481C262.439 197.558 254.913 193.434 247.555 189.108L277.2 171.597C267.665 175.691 255.591 180.865 242.858 186.305C226.602 176.454 211.285 165.597 198 153.728C218.813 140.788 247.462 134.258 278.63 136.062L286.122 156.025C284.752 150.2 283.174 143.481 281.481 136.25C295.3 137.271 309.579 139.926 323.86 144.381L331.657 165.157C330.288 159.335 328.711 152.621 327.019 145.396C337.573 148.885 348.109 153.365 358.444 158.9L366.651 180.767C365.271 174.9 363.68 168.126 361.973 160.836C364.946 162.506 367.899 164.264 370.83 166.113C377.558 170.357 383.899 174.468 389.864 178.442L397.298 198.249Z" fill="#459B01"/>
<path d="M242.308 160.339C330.199 165.293 374.185 188.448 448.318 244.002" stroke="#81CE45" stroke-width="5"/>
<path fill-rule="evenodd" clip-rule="evenodd" d="M559.58 195.408C562.975 187.501 566.834 178.503 570.976 168.833C388.412 250.005 404.743 296.492 540.581 280.144C562.981 277.448 594.4 273.265 630.305 266.778L592.942 234.787C605.914 243.288 622.114 253.888 639.313 265.119C654.474 262.272 670.34 259.019 686.588 255.301L640.425 215.774C655.965 225.958 676.139 239.155 697.111 252.839C714.22 248.748 731.671 244.138 749.097 238.942L701.192 197.923C717.06 208.323 737.761 221.865 759.211 235.858C772.268 231.788 785.272 227.38 798.068 222.608L756.223 186.778C770.109 195.879 787.697 207.386 806.248 219.496C834.6 208.491 861.75 195.638 885.982 180.627C856.782 154.455 813.454 136.206 763.842 130.39L746.49 159.763C750.268 150.965 754.62 140.817 759.297 129.894C737.239 127.663 714.002 127.88 690.262 130.931L672.204 161.501C675.979 152.709 680.328 142.568 685.002 131.653C667.403 134.219 649.557 138.349 631.734 144.201L612.727 176.375C616.532 167.515 620.92 157.283 625.635 146.271C620.488 148.075 615.345 150.025 610.214 152.124C598.433 156.943 587.299 161.657 576.797 166.263L559.58 195.408Z" fill="#54B408"/>
<path d="M814.329 178.734C674.464 162.121 598.722 186.384 466.476 253.325" stroke="#81CE45" stroke-width="5"/>
<path fill-rule="evenodd" clip-rule="evenodd" d="M484.936 178.404C484.303 173.064 483.58 166.988 482.8 160.459C409.35 261.446 432.717 281.504 501.133 230.206C512.414 221.747 528.114 209.665 545.52 194.933L515.3 189.293C524.978 189.841 537.059 190.516 549.878 191.22C557.195 184.941 564.765 178.222 572.398 171.132L535.06 164.164C546.653 164.82 561.697 165.659 577.325 166.511C585.307 158.951 593.311 151.002 601.12 142.744L562.372 135.512C574.211 136.182 589.648 137.043 605.631 137.914C611.426 131.63 617.087 125.181 622.522 118.599L588.676 112.283C599.036 112.869 612.151 113.601 625.977 114.359C637.883 99.5421 648.563 84.1006 656.988 68.4035C633.004 63.3624 603.85 67.0249 575.178 79.3807L574.966 100.702C574.261 94.7592 573.445 87.906 572.564 80.5323C559.927 86.2181 547.417 93.5966 535.521 102.667L535.3 124.857C534.596 118.918 533.781 112.07 532.9 104.702C524.176 111.59 515.807 119.403 507.989 128.14L507.756 151.494C507.046 145.509 506.224 138.6 505.335 131.166C503.112 133.751 500.938 136.414 498.817 139.154C493.946 145.443 489.393 151.474 485.147 157.249L484.936 178.404Z" fill="#459B01"/>
<path d="M617.613 89.7702C536.717 124.486 503.303 161.288 452.641 238.848" stroke="#81CE45" stroke-width="5"/>
</svg>
