<svg width="100%" height="100%" viewBox="0 0 148 800" fill="none" xmlns="http://www.w3.org/2000/svg">
<path fill-rule="evenodd" clip-rule="evenodd" d="M2.58136 22.9874C47.0256 144.457 133.257 419.554 64.7194 775.776C64.4457 777.199 64.3263 778.612 64.3485 780H147.536C147.536 779.952 147.536 779.903 147.536 779.854C146.825 429.094 126.973 276.414 48.028 22.987C38.3978 -7.92762 -8.53553 -7.39603 2.58136 22.9874Z" fill="#DCB44C"/>
<path fill-rule="evenodd" clip-rule="evenodd" d="M69.2881 93.8791C69.75 95.4894 70.2092 97.0964 70.666 98.7001C62.0189 101.87 54.6827 103.709 47.3249 103.827C41.2732 103.924 35.3248 102.857 28.7236 100.56C28.1006 98.5281 27.4786 96.5152 26.8579 94.5219C34.5577 97.6077 40.9113 98.9296 47.2446 98.8279C53.9109 98.7209 60.7357 97.036 69.2881 93.8791Z" fill="#FEEFC7"/>
<path fill-rule="evenodd" clip-rule="evenodd" d="M146.008 643.614C146.047 645.34 146.085 647.071 146.123 648.807C134.449 652.34 124.84 654.371 115.249 654.494C105.22 654.623 95.3704 652.665 83.3267 648.391C83.4979 646.678 83.6656 644.968 83.83 643.259C96.0586 647.7 105.609 649.617 115.185 649.494C124.451 649.375 133.899 647.346 146.008 643.614Z" fill="#FEEFC7"/>
<path fill-rule="evenodd" clip-rule="evenodd" d="M138.012 471.537C138.133 473.273 138.252 475.014 138.37 476.759C128.742 480.438 120.788 482.59 112.809 482.718C105.203 482.84 97.76 481.123 88.9796 477.438C88.958 475.608 88.9328 473.781 88.9041 471.959C98.1989 476.086 105.477 477.835 112.728 477.719C120.215 477.599 127.902 475.488 138.012 471.537Z" fill="#FEEFC7"/>
<path fill-rule="evenodd" clip-rule="evenodd" d="M122.751 333.831C123.003 335.513 123.253 337.196 123.501 338.882C115.069 341.94 107.874 343.711 100.658 343.827C93.9304 343.935 87.3303 342.604 79.819 339.745C79.5854 337.851 79.3485 335.962 79.1084 334.08C87.3002 337.482 93.9502 338.934 100.578 338.828C107.278 338.72 114.138 337.019 122.751 333.831Z" fill="#FEEFC7"/>
<path fill-rule="evenodd" clip-rule="evenodd" d="M98.6332 206.83C99.0084 208.466 99.3809 210.101 99.7508 211.734C92.3418 214.268 85.8418 215.723 79.3247 215.827C72.4151 215.938 65.6401 214.531 57.8744 211.509C57.4371 209.517 56.9975 207.536 56.5557 205.564C65.313 209.335 72.291 210.94 79.2445 210.828C85.2064 210.732 91.2952 209.374 98.6332 206.83Z" fill="#FEEFC7"/>
</svg>
