<svg width="100%" height="100%" viewBox="0 0 110 600" fill="none" xmlns="http://www.w3.org/2000/svg">
<path fill-rule="evenodd" clip-rule="evenodd" d="M1.26915 17.2406C34.3518 107.658 98.3052 311.57 49.0123 575.817C48.7494 577.227 48.6369 578.626 48.6624 580H109.973C109.973 579.975 109.973 579.951 109.973 579.926C109.262 320.372 94.1891 206.11 35.3541 17.2403C28.1315 -5.94572 -7.06852 -5.54702 1.26915 17.2406Z" fill="#A9821E"/>
<path fill-rule="evenodd" clip-rule="evenodd" d="M51.1262 69.8069C51.5889 71.4183 52.0482 73.0253 52.5041 74.6279C46.0056 77.0074 40.4402 78.4054 34.8367 78.4954C30.3431 78.5675 25.9363 77.7981 21.1018 76.1588C20.4784 74.1198 19.8562 72.1066 19.2358 70.1196C25.1725 72.55 29.9835 73.5726 34.7565 73.496C39.6683 73.4172 44.7223 72.1734 51.1262 69.8069Z" fill="#F2D792"/>
<path fill-rule="evenodd" clip-rule="evenodd" d="M108.824 482.061C108.864 483.785 108.902 485.516 108.939 487.254C100.233 489.88 93.0081 491.403 85.7779 491.495C78.2015 491.593 70.7777 490.12 61.7639 486.934C61.9362 485.22 62.104 483.509 62.2673 481.802C71.4661 485.155 78.5908 486.587 85.7137 486.496C92.6189 486.407 99.6831 484.886 108.824 482.061Z" fill="#F2D792"/>
<path fill-rule="evenodd" clip-rule="evenodd" d="M102.796 353C102.918 354.734 103.037 356.475 103.155 358.222C95.9862 360.95 89.99 362.567 83.9495 362.664C78.2075 362.756 72.6074 361.474 66.0756 358.759C66.0551 356.928 66.0299 355.101 66 353.28C73.0473 356.437 78.4824 357.751 83.8692 357.664C89.4168 357.575 95.1458 356 102.796 353Z" fill="#F2D792"/>
<path fill-rule="evenodd" clip-rule="evenodd" d="M91.3015 249.742C91.5544 251.423 91.8043 253.106 92.0511 254.793C85.746 257.072 80.3095 258.408 74.8366 258.495C69.786 258.576 64.8451 257.594 59.2835 255.509C59.0509 253.613 58.8139 251.725 58.5728 249.844C64.8167 252.473 69.8069 253.575 74.7564 253.496C79.7129 253.416 84.8143 252.151 91.3015 249.742Z" fill="#F2D792"/>
<path fill-rule="evenodd" clip-rule="evenodd" d="M73.1675 154.51C73.5436 156.146 73.9161 157.781 74.285 159.414C68.7176 161.313 63.7921 162.416 58.8368 162.495C53.6702 162.578 48.6184 161.549 42.8995 159.364C42.4629 157.368 42.0232 155.386 41.5806 153.418C48.2937 156.354 53.5477 157.579 58.7566 157.496C63.1567 157.425 67.671 156.42 73.1675 154.51Z" fill="#F2D792"/>
</svg>
