<svg width="100%" height="100%" viewBox="0 0 1203 1462" fill="none" xmlns="http://www.w3.org/2000/svg">
<path fill-rule="evenodd" clip-rule="evenodd" d="M1082.03 94.5219C1073.4 66.7861 1065.02 42.8358 1057.76 22.9874C1046.64 -7.39603 1093.57 -7.92762 1103.2 22.987C1110.83 47.468 1117.9 71.009 1124.46 93.8791C1124.92 95.4894 1125.38 97.0964 1125.84 98.7001C1136.51 136.16 1145.79 171.857 1153.84 206.989C1154.21 208.572 1154.57 210.154 1154.92 211.734C1164.15 252.496 1171.74 292.569 1177.92 333.831C1178.18 335.508 1178.43 337.187 1178.67 338.867L1178.67 338.882C1196.39 459.544 1202.33 590.983 1202.71 779.854C1202.71 779.903 1202.71 779.952 1202.71 780H1119.52C1119.5 778.612 1119.62 777.199 1119.89 775.776C1128.31 732.047 1134.39 689.541 1138.5 648.391C1138.67 646.743 1138.83 645.096 1138.99 643.452L1139 643.259C1144.59 585.265 1146.26 529.991 1145.07 477.817C1144.77 477.693 1144.46 477.567 1144.15 477.438C1144.13 475.608 1144.11 473.781 1144.08 471.959C1144.36 472.086 1144.65 472.211 1144.93 472.334C1143.67 425.518 1140.11 381.229 1134.99 339.745C1134.77 337.917 1134.54 336.095 1134.31 334.278L1134.28 334.08C1128.64 289.871 1121.26 248.9 1113.05 211.509C1113.03 211.428 1113.01 211.346 1112.99 211.264C1112.57 209.355 1112.15 207.455 1111.73 205.564C1102.95 166.398 1093.31 131.261 1083.9 100.56L1083.84 100.384C1083.24 98.4114 1082.63 96.4574 1082.03 94.5219Z" fill="black" fill-opacity="0.25"/>
<path fill-rule="evenodd" clip-rule="evenodd" d="M1071.57 828.668C1087.64 813.037 1103.74 796.82 1119.83 780H1202.38L1202.67 780.338L1202.62 780.376L1202.56 780.432C1166.52 810.577 1133.05 838.244 1101.54 863.841C1100.15 864.966 1098.77 866.087 1097.39 867.204C1004.04 942.915 927.883 1000.41 853.186 1050.47C851.808 1051.4 850.431 1052.32 849.055 1053.23C814.586 1076.22 780.366 1097.67 744.846 1118.63C743.436 1119.46 742.024 1120.29 740.61 1121.12L740.372 1121.26C709.756 1139.24 678.132 1156.89 644.517 1174.89C643.054 1175.68 641.588 1176.46 640.118 1177.24L639.958 1177.33C633.426 1180.82 626.818 1184.32 620.127 1187.83C636.523 1188 655.456 1189.33 676.729 1191.89C704.771 1195.27 744.103 1200.5 789.051 1208.62L742.279 1248.67C758.517 1238.03 778.798 1224.76 800.328 1210.7C819.308 1214.26 839.169 1218.34 859.509 1222.99L801.72 1272.47C821.173 1259.72 846.428 1243.2 872.683 1226.07C894.101 1231.19 915.946 1236.96 937.761 1243.47L877.791 1294.82C897.656 1281.8 923.571 1264.85 950.423 1247.33C966.769 1252.43 983.048 1257.94 999.066 1263.92L946.682 1308.77C964.066 1297.38 986.083 1282.97 1009.31 1267.81C1044.8 1281.59 1078.79 1297.68 1109.12 1316.47C1072.57 1349.23 1018.33 1372.08 956.22 1379.36L934.498 1342.59C939.227 1353.6 944.676 1366.31 950.531 1379.98C922.916 1382.77 893.828 1382.5 864.109 1378.68L841.502 1340.41C846.228 1351.42 851.673 1364.12 857.524 1377.78C835.493 1374.57 813.151 1369.4 790.84 1362.07L767.046 1321.79C771.81 1332.89 777.302 1345.69 783.205 1359.48C776.762 1357.22 770.324 1354.78 763.9 1352.15C749.837 1346.4 736.51 1340.77 723.902 1335.26C733.505 1344.39 743.123 1353.96 752.515 1363.9L704.009 1372.95C718.829 1372.11 738.154 1371.03 758.162 1369.94C765.417 1377.81 772.504 1385.88 779.308 1394.12L736.937 1402.03C749.907 1401.29 766.325 1400.38 783.633 1399.43C798.538 1417.98 811.907 1437.31 822.454 1456.96C792.429 1463.27 755.933 1458.68 720.04 1443.22L719.774 1416.53C718.892 1423.97 717.871 1432.54 716.767 1441.78C700.947 1434.66 685.288 1425.42 670.395 1414.07L670.118 1386.29C669.237 1393.72 668.216 1402.29 667.113 1411.52C656.193 1402.9 645.716 1393.11 635.928 1382.18L635.637 1352.94C634.749 1360.43 633.719 1369.08 632.606 1378.39C629.824 1375.15 627.102 1371.82 624.446 1368.39C618.349 1360.52 612.649 1352.97 607.334 1345.74L607.07 1319.25C606.278 1325.94 605.372 1333.55 604.396 1341.72C592.068 1324.77 581.918 1309.64 573.791 1296.3C572.259 1302.29 570.541 1308.62 568.627 1315.28C565.657 1309.4 562.895 1303.93 560.47 1299.12L567.518 1319.1C565.501 1325.99 563.282 1333.23 560.852 1340.81C559.794 1344.12 558.66 1347.37 557.454 1350.56C554.071 1343.87 550.931 1337.65 548.213 1332.26L555.993 1354.32C551.628 1365.22 546.428 1375.44 540.578 1384.91C537.225 1378.28 534.112 1372.11 531.415 1366.76L538.807 1387.72C530.719 1400.33 521.474 1411.56 511.529 1421.24C508.174 1414.6 505.059 1408.43 502.36 1403.08L509.463 1423.22C486.713 1444.67 460.531 1458.1 436.233 1461.57C438.785 1443.92 443.546 1425.73 449.676 1407.7C462.947 1403.68 475.54 1399.88 485.491 1396.88L451.475 1402.53C454.335 1394.47 457.454 1386.47 460.755 1378.57C476.095 1373.91 490.917 1369.43 502.288 1366.01L463.346 1372.48C467.866 1362.03 472.676 1351.81 477.598 1341.96C492.598 1337.41 507.043 1333.04 518.178 1329.69L480.652 1335.92C484.772 1327.88 488.944 1320.11 493.065 1312.7C494.612 1306.1 496.06 1299.93 497.36 1294.41L488.054 1319.21C480.587 1324.18 472.648 1329.33 464.226 1334.64C460.557 1336.95 456.859 1339.16 453.138 1341.25C455.276 1332.12 457.266 1323.64 458.994 1316.3L448.72 1343.67C435.783 1350.6 422.593 1356.21 409.381 1360.58C411.499 1351.53 413.473 1343.12 415.187 1335.84L405.426 1361.85C387.548 1367.42 369.674 1370.75 352.374 1372.02C354.494 1362.97 356.468 1354.56 358.184 1347.27L348.805 1372.26C309.787 1374.52 273.923 1366.34 247.867 1350.15C264.499 1335.29 283.673 1321.69 304.024 1309.36C319.963 1316.17 335.078 1322.65 347.014 1327.78L309.904 1305.85C316.498 1301.98 323.201 1298.23 329.966 1294.61C324.159 1294.89 318.237 1295.15 312.199 1295.39C305.264 1295.66 298.379 1295.75 291.551 1295.67C301.813 1284.73 311.355 1274.58 319.625 1265.78L283.491 1295.49C260.02 1294.75 237.257 1291.96 215.456 1287.45C225.627 1276.61 235.085 1266.54 243.291 1257.81L208.959 1286.04C179.726 1279.47 152.299 1269.77 127.305 1257.71C137.483 1246.86 146.948 1236.78 155.159 1228.05L122.171 1255.18C66.2993 1227.09 23.1441 1187.07 0 1143.78C34.9319 1136.5 72.3741 1133.01 110.438 1132.2C127.076 1154.39 142.838 1175.45 155.277 1192.11L121.393 1132.04C138.489 1131.91 155.673 1132.29 172.776 1133.09C192.017 1158.74 210.571 1183.53 224.786 1202.56L185.994 1133.79C201.742 1134.73 217.384 1136 232.785 1137.53C216.38 1125.81 201.49 1112.96 188.255 1099.36C199.871 1093.49 210.668 1088.03 220.032 1083.31L184.791 1095.74C147.256 1055.93 123.749 1010.11 117.674 967.59C148.576 972.056 180.408 980.387 211.947 991.115C218.987 1014.34 225.642 1036.38 230.887 1053.79L221.002 994.263C235.099 999.268 249.114 1004.73 262.936 1010.5C271.082 1037.35 278.918 1063.29 284.911 1083.19L273.594 1015.04C291.875 1022.95 309.764 1031.36 327 1039.98C334.964 1066.23 342.6 1091.51 348.469 1110.99L337.564 1045.32C353.816 1053.64 369.419 1062.08 384.145 1070.37C390.67 1091.9 396.8 1112.21 401.699 1128.47L392.873 1075.32C427.568 1095.16 456.877 1113.77 477.571 1127.28C513.659 1150.84 537.796 1171.8 548.868 1188.27C550.406 1187.21 552.184 1186.19 554.217 1185.25C572.816 1176.6 595.068 1165.96 620.331 1153.03C622.18 1152.09 624.045 1151.13 625.926 1150.16L626.12 1150.06C654.013 1135.66 685.39 1118.57 719.43 1098.41C721.177 1097.37 722.931 1096.33 724.693 1095.28L724.915 1095.15C757.437 1075.74 792.312 1053.56 828.839 1028.32C830.392 1027.25 831.949 1026.17 833.508 1025.09C867.627 1001.36 903.151 974.961 939.517 945.657L939.327 945.592L939.15 945.532C939.041 945.495 938.932 945.458 938.822 945.422C940.323 944.192 941.825 942.957 943.328 941.718C943.57 941.81 943.81 941.902 944.047 941.996C984.513 909.181 1025.99 872.767 1067.7 832.418C1068.99 831.172 1070.28 829.922 1071.57 828.668ZM656.369 1303.52C657.232 1303.96 658.099 1304.4 658.973 1304.84C654.028 1305.12 649.366 1305.38 645.082 1305.62L656.369 1303.52ZM713.77 1328.88L714.78 1331.24C713.43 1330.64 712.089 1330.04 710.757 1329.44L669.817 1337.08C684.128 1336.27 702.639 1335.24 721.909 1334.19L700.513 1297.97C703.876 1305.8 707.602 1314.48 711.579 1323.77C713.236 1325.28 714.897 1326.81 716.56 1328.36L713.77 1328.88ZM513.318 1301.74L528.165 1299.27C522.356 1301.02 515.647 1303.05 508.427 1305.23C510.087 1304.06 511.717 1302.89 513.318 1301.74ZM427.339 1286.77L432.3 1289.7C430.25 1288.82 428.107 1287.9 425.881 1286.95C426.369 1286.89 426.855 1286.83 427.339 1286.77ZM386.565 1270.12L385.844 1269.81L390.294 1266.15L388.51 1268.05L386.565 1270.12ZM356.453 1293.13L387.903 1311.71C376.239 1306.7 361.54 1300.4 346.002 1293.76C349.531 1293.56 353.014 1293.35 356.453 1293.13ZM362.541 1196.02L367.909 1205.54C365.492 1202.3 362.95 1198.9 360.3 1195.36C360.692 1195.48 361.084 1195.59 361.476 1195.71C361.831 1195.81 362.186 1195.92 362.541 1196.02ZM338.548 1166.29L338.061 1165.64L343.97 1163.55C342.212 1164.44 340.403 1165.35 338.548 1166.29ZM267.17 1142.45L266.531 1141.31C267.301 1141.41 268.07 1141.51 268.838 1141.6C274.052 1138.97 278.994 1136.48 283.59 1134.16L256.189 1143.82L258.456 1146.85C261.429 1145.34 264.338 1143.88 267.17 1142.45ZM280.498 1166.07L303.912 1207.58C293.723 1193.94 281.306 1177.34 268.004 1159.58C272.098 1161.82 276.264 1163.98 280.498 1166.07Z" fill="black" fill-opacity="0.25"/>
</svg>
