<svg width="100%" height="100%" viewBox="0 0 1032 548" fill="none" xmlns="http://www.w3.org/2000/svg">
<path fill-rule="evenodd" clip-rule="evenodd" d="M402.856 330.585C394.44 326.341 384.867 321.508 374.582 316.31C584.926 255.88 603.953 306.386 478.46 388.311C457.766 401.82 428.457 420.433 393.762 440.269L402.588 387.119C397.689 403.385 391.559 423.686 385.034 445.22C370.308 453.506 354.705 461.947 338.453 470.267L349.358 404.597C343.489 424.084 335.853 449.362 327.889 475.611C310.653 484.225 292.764 492.643 274.483 500.552L285.8 432.404C279.807 452.303 271.971 478.242 263.825 505.086C250.003 510.864 235.988 516.322 221.891 521.327L231.776 461.799C226.531 479.213 219.876 501.251 212.836 524.474C181.297 535.203 149.465 543.534 118.563 548C124.638 505.479 148.145 459.66 185.68 419.848L220.921 432.278C211.557 427.555 200.76 422.104 189.144 416.232C206.083 398.828 225.733 382.649 247.802 368.495L284.479 381.431C275.121 376.712 264.331 371.264 252.724 365.397C269.298 355.159 287.182 346.059 306.257 338.42L344.859 352.036C335.428 347.28 324.542 341.784 312.832 335.863C318.421 333.753 324.11 331.769 329.893 329.917C343.171 325.665 355.833 321.782 367.889 318.252L402.856 330.585Z" fill="#65D852"/>
<path d="M177.354 495.962C283.02 383.544 363.659 350.573 521.759 313.63" stroke="#55C820" stroke-width="5"/>
<path fill-rule="evenodd" clip-rule="evenodd" d="M391.184 249.441C383.805 241.594 375.412 232.661 366.4 223.059C615.916 240.38 616.608 302.058 449.814 340.987C422.31 347.406 383.558 355.939 338.544 363.68L368.798 310.05C357.179 325.603 342.66 345.01 327.236 365.585C308.183 368.728 288.126 371.694 267.42 374.277L304.801 308.014C290.881 326.647 272.8 350.81 253.987 375.887C232.109 378.4 209.607 380.448 186.883 381.797L225.675 313.033C211.46 332.061 192.906 356.854 173.665 382.5C156.562 383.302 139.378 383.685 122.282 383.55L156.166 323.485C143.727 340.136 127.965 361.202 111.328 383.391C73.2634 382.584 35.8211 379.089 0.889255 371.806C24.0333 328.516 67.1885 288.498 123.061 260.414L156.048 287.538C147.838 278.806 138.373 268.731 128.194 257.885C153.188 245.815 180.615 236.121 209.848 229.547L244.18 257.776C235.975 249.05 226.517 238.982 216.345 228.143C238.146 223.627 260.909 220.844 284.38 220.097L320.515 249.808C312.245 241.014 302.703 230.856 292.44 219.921C299.268 219.84 306.153 219.932 313.088 220.204C329.009 220.828 344.125 221.607 358.452 222.528L391.184 249.441Z" fill="#88F562"/>
<path d="M84.3678 338.901C241.787 259.473 341.276 255.585 525.506 277.709" stroke="#55C820" stroke-width="5"/>
<path fill-rule="evenodd" clip-rule="evenodd" d="M561.359 216.469C563.785 211.66 566.546 206.19 569.517 200.313C604.048 320.509 575.187 331.382 528.374 259.672C520.654 247.847 510.018 231.099 498.683 211.273L529.054 216.316C519.76 213.517 508.159 210.014 495.854 206.285C491.119 197.871 486.296 188.954 481.541 179.668L519.067 185.899C507.932 182.545 493.487 178.182 478.487 173.631C473.565 163.782 468.755 153.56 464.235 143.114L503.177 149.58C491.806 146.156 476.984 141.678 461.645 137.023C458.343 129.125 455.224 121.116 452.364 113.061L486.38 118.709C476.429 115.712 463.836 111.909 450.566 107.887C444.435 89.8643 439.674 71.6745 437.122 54.0164C461.42 57.4875 487.602 70.9203 510.352 92.3689L503.249 112.507C505.948 107.156 509.063 100.986 512.418 94.3483C522.363 104.028 531.608 115.256 539.697 127.867L532.304 148.825C535.001 143.478 538.114 137.312 541.467 130.68C547.317 140.151 552.517 150.37 556.882 161.27L549.102 183.328C551.82 177.939 554.96 171.718 558.343 165.027C559.549 168.221 560.683 171.471 561.741 174.776C564.171 182.363 566.39 189.599 568.407 196.488L561.359 216.469Z" fill="#88F562"/>
<path d="M466.859 87.6113C531.097 147.991 549.938 194.071 571.048 284.414" stroke="#55C820" stroke-width="5"/>
<path fill-rule="evenodd" clip-rule="evenodd" d="M498.249 221.18C496.707 214.626 494.956 207.169 493.078 199.155C622.72 286.504 603.82 320.104 501.375 289.052C484.482 283.932 460.841 276.44 434.057 266.563L467.192 246.99C456.042 251.777 442.119 257.744 427.341 264.061C416.046 259.808 404.263 255.146 392.249 250.073L433.189 225.889C419.831 231.624 402.494 239.052 384.475 246.746C371.848 241.27 359.028 235.347 346.307 228.976L388.792 203.878C375.152 209.735 357.361 217.357 338.933 225.225C329.425 220.315 320.004 215.152 310.793 209.736L347.903 187.814C335.967 192.939 320.852 199.416 304.913 206.227C284.562 193.895 265.388 180.303 248.757 165.445C274.812 149.246 310.676 141.071 349.694 143.33L359.073 168.32C357.357 161.028 355.383 152.617 353.263 143.566C370.563 144.844 388.437 148.167 406.315 153.744L416.076 179.752C414.362 172.465 412.389 164.06 410.27 155.015C423.482 159.383 436.672 164.99 449.61 171.92L459.883 199.294C458.155 191.95 456.165 183.47 454.028 174.344C457.748 176.434 461.446 178.635 465.115 180.95C473.537 186.263 481.476 191.408 488.943 196.384L498.249 221.18Z" fill="#65D852"/>
<path d="M304.224 173.721C414.25 179.923 469.315 208.909 562.119 278.456" stroke="#55C820" stroke-width="5"/>
<path fill-rule="evenodd" clip-rule="evenodd" d="M701.403 217.622C705.653 207.724 710.484 196.46 715.669 184.355C487.125 285.97 507.569 344.165 677.619 323.7C705.66 320.325 744.993 315.089 789.94 306.968L743.168 266.919C759.406 277.561 779.687 290.831 801.217 304.89C820.197 301.327 840.058 297.254 860.399 292.6L802.609 243.118C822.062 255.867 847.317 272.388 873.572 289.518C894.99 284.397 916.836 278.626 938.65 272.121L878.68 220.772C898.545 233.79 924.46 250.743 951.312 268.261C967.658 263.165 983.937 257.647 999.955 251.673L947.571 206.82C964.955 218.212 986.972 232.617 1010.2 247.777C1045.69 234 1079.68 217.91 1110.01 199.119C1073.46 166.355 1019.22 143.511 957.109 136.23L935.388 173C940.117 161.987 945.565 149.282 951.42 135.609C923.806 132.816 894.717 133.087 864.998 136.907L842.391 175.176C847.118 164.17 852.562 151.474 858.413 137.81C836.382 141.023 814.04 146.193 791.729 153.518L767.936 193.797C772.699 182.704 778.191 169.896 784.094 156.11C777.651 158.369 771.213 160.81 764.789 163.438C750.042 169.47 736.103 175.372 722.955 181.137L701.403 217.622Z" fill="#88F562"/>
<path d="M1020.31 196.749C845.221 175.953 750.402 206.326 584.85 290.126" stroke="#55C820" stroke-width="5"/>
<path fill-rule="evenodd" clip-rule="evenodd" d="M607.959 196.336C607.167 189.651 606.262 182.044 605.285 173.872C513.337 300.293 542.589 325.403 628.235 261.185C642.358 250.596 662.012 235.47 683.802 217.028L645.971 209.968C658.086 210.653 673.21 211.498 689.257 212.38C698.416 204.52 707.894 196.109 717.449 187.233L670.707 178.509C685.22 179.331 704.052 180.381 723.617 181.448C733.609 171.983 743.63 162.033 753.405 151.695L704.898 142.642C719.718 143.481 739.043 144.558 759.051 145.649C766.306 137.782 773.393 129.709 780.197 121.469L737.826 113.562C750.796 114.296 767.214 115.212 784.522 116.161C799.427 97.6124 812.796 78.2819 823.343 58.6313C793.319 52.3206 756.822 56.9055 720.929 72.3732L720.663 99.0639C719.781 91.6248 718.76 83.0457 717.656 73.8149C701.837 80.9327 686.177 90.1696 671.285 101.525L671.008 129.303C670.126 121.868 669.106 113.295 668.003 104.071C657.082 112.695 646.605 122.475 636.818 133.412L636.526 162.649C635.638 155.156 634.608 146.507 633.495 137.201C630.713 140.437 627.992 143.77 625.336 147.2C619.238 155.073 613.538 162.624 608.224 169.853L607.959 196.336Z" fill="#65D852"/>
<path d="M774.052 85.3794C672.782 128.839 630.951 174.91 567.531 272.003" stroke="#55C820" stroke-width="5"/>
</svg>
