<svg width="100%" height="100%" viewBox="0 0 782 1092" fill="none" xmlns="http://www.w3.org/2000/svg">
<path fill-rule="evenodd" clip-rule="evenodd" d="M650.269 17.2406C655.648 31.9425 661.844 49.645 668.236 70.1197C668.831 72.0254 669.428 73.9552 670.025 75.9087C676.976 98.6207 684.089 124.554 690.581 153.418C690.992 155.249 691.401 157.091 691.808 158.945C697.916 186.81 703.414 217.321 707.622 250.228C707.846 251.982 708.067 253.742 708.284 255.509C712.051 286.217 714.681 318.967 715.633 353.561C715.424 353.469 715.213 353.375 715 353.28C715.03 355.101 715.055 356.928 715.076 358.759C715.247 358.83 715.417 358.9 715.586 358.969L715.77 359.044C716.632 397.781 715.38 438.792 711.267 481.802L711.263 481.852C711.101 483.543 710.935 485.237 710.764 486.934C707.871 515.706 703.694 545.361 698.012 575.817C697.778 577.074 697.663 578.322 697.659 579.552H696.872C589.348 756.459 455.938 849.593 382.559 893.23C373.57 882.663 358.157 870.006 336.785 856.054C322.228 846.551 301.61 833.457 277.202 819.503L283.411 856.893C279.965 845.45 275.652 831.168 271.063 816.02C260.703 810.191 249.727 804.253 238.294 798.4L245.965 844.597C241.837 830.889 236.465 813.106 230.863 794.641C218.737 788.581 206.153 782.659 193.293 777.095L201.254 825.036C197.038 811.037 191.526 792.79 185.795 773.905C176.071 769.841 166.212 766.002 156.295 762.481L163.249 804.357C159.56 792.107 154.878 776.603 149.926 760.266C127.739 752.719 105.346 746.858 83.6073 743.717C87.8805 773.629 104.417 805.862 130.822 833.869L155.613 825.124C149.026 828.446 141.43 832.281 133.259 836.412C142.569 845.978 153.044 855.018 164.585 863.263C153.75 862.188 142.747 861.294 131.669 860.636L158.957 909.01C148.958 895.624 135.905 878.183 122.37 860.142C110.338 859.578 98.2496 859.308 86.2232 859.403L110.06 901.657C101.309 889.944 90.221 875.124 78.5169 859.515C51.7397 860.083 25.4001 862.541 0.826416 867.664C17.1076 898.118 47.4662 926.27 86.7708 946.026L109.977 926.945C104.201 933.088 97.5424 940.175 90.382 947.805C107.965 956.296 127.259 963.115 147.824 967.74L171.975 947.882C166.203 954.021 159.549 961.103 152.394 968.728C167.731 971.905 183.743 973.862 200.255 974.388L225.674 953.487C219.857 959.674 213.144 966.819 205.925 974.512C210.728 974.569 215.572 974.504 220.45 974.313C224.698 974.146 228.864 973.964 232.949 973.767C228.19 976.312 223.475 978.949 218.836 981.676L244.942 997.098C236.545 993.493 225.912 988.936 214.699 984.145C200.383 992.82 186.895 1002.38 175.195 1012.83C193.524 1024.23 218.753 1029.98 246.201 1028.39L252.799 1010.81C251.592 1015.94 250.203 1021.86 248.712 1028.23C260.882 1027.33 273.457 1024.99 286.033 1021.07L292.9 1002.77C291.694 1007.9 290.306 1013.81 288.815 1020.17C298.109 1017.1 307.388 1013.15 316.49 1008.28L323.717 989.022C322.501 994.189 321.101 1000.15 319.598 1006.57C322.215 1005.1 324.816 1003.56 327.397 1001.93C333.322 998.189 338.907 994.57 344.16 991.069L350.706 973.626C349.792 977.512 348.773 981.85 347.684 986.493C344.785 991.703 341.851 997.168 338.953 1002.83L365.351 998.445C357.518 1000.8 347.356 1003.87 336.804 1007.08C333.342 1014 329.958 1021.2 326.778 1028.54L354.173 1023.99C346.174 1026.4 335.747 1029.55 324.956 1032.83C322.633 1038.38 320.439 1044.02 318.427 1049.69L342.357 1045.71C335.357 1047.82 326.497 1050.5 317.162 1053.33C312.85 1066 309.5 1078.8 307.705 1091.22C324.798 1088.78 343.216 1079.33 359.22 1064.24L354.224 1050.08C356.122 1053.84 358.313 1058.18 360.674 1062.85C367.67 1056.04 374.174 1048.14 379.864 1039.27L374.663 1024.53C376.56 1028.29 378.75 1032.63 381.109 1037.29C385.224 1030.63 388.882 1023.44 391.953 1015.77L386.48 1000.25C388.392 1004.05 390.601 1008.42 392.981 1013.13C393.829 1010.88 394.627 1008.59 395.371 1006.27C397.08 1000.93 398.642 995.843 400.061 990.996L395.103 976.94C396.809 980.323 398.752 984.172 400.841 988.306C402.187 983.621 403.396 979.172 404.473 974.957C410.191 984.339 417.331 994.982 426.003 1006.91C426.69 1001.16 427.327 995.806 427.885 991.103L428.07 1009.73C431.809 1014.82 435.819 1020.13 440.108 1025.67C441.977 1028.08 443.891 1030.43 445.848 1032.7C446.631 1026.16 447.356 1020.07 447.98 1014.8L448.186 1035.37C455.071 1043.06 462.441 1049.94 470.123 1056.01C470.899 1049.52 471.617 1043.49 472.237 1038.26L472.432 1057.8C482.908 1065.79 493.925 1072.29 505.053 1077.29C505.83 1070.8 506.548 1064.76 507.169 1059.53L507.356 1078.31C532.605 1089.19 558.28 1092.41 579.401 1087.97C571.982 1074.15 562.577 1060.55 552.092 1047.5C539.916 1048.17 528.366 1048.82 519.243 1049.33L549.049 1043.77C544.263 1037.97 539.278 1032.29 534.174 1026.76C520.098 1027.53 506.504 1028.29 496.078 1028.88L530.201 1022.51C523.594 1015.52 516.828 1008.78 510.073 1002.36C518.942 1006.24 528.317 1010.2 538.21 1014.25C542.729 1016.09 547.258 1017.81 551.791 1019.4C547.638 1009.7 543.774 1000.69 540.424 992.89L557.162 1021.22C572.857 1026.38 588.574 1030.01 604.072 1032.27C599.956 1022.66 596.126 1013.73 592.801 1005.99L608.705 1032.91C629.611 1035.6 650.074 1035.79 669.5 1033.82C665.381 1024.2 661.549 1015.27 658.222 1007.52L673.502 1033.39C717.194 1028.26 755.35 1012.19 781.065 989.145C759.725 975.926 735.815 964.607 710.847 954.916C694.51 965.58 679.022 975.714 666.793 983.728L703.643 952.175C692.375 947.972 680.923 944.091 669.424 940.506C650.535 952.829 632.304 964.755 618.33 973.913L660.517 937.791C645.171 933.215 629.803 929.155 614.736 925.552C596.267 937.603 578.5 949.225 564.816 958.193L605.469 923.384C591.16 920.11 577.188 917.245 563.836 914.738C548.69 924.628 534.423 933.964 523 941.45L555.903 913.277C524.284 907.564 496.614 903.88 476.888 901.506C456.45 899.047 439.084 898.202 425.139 898.849C550.554 814.836 621.612 743.05 756.484 583.071C757.305 582.097 758.017 581.068 758.62 580H758.973L758.973 579.926C758.882 546.812 758.558 516.064 757.939 487.223C757.902 485.496 757.864 483.775 757.824 482.061C754.784 349.197 745.308 256.887 723.285 159.414C722.944 157.902 722.599 156.39 722.252 154.876L722.167 154.51C716.209 128.585 709.36 102.243 701.504 74.6279C701.078 73.1313 700.65 71.6309 700.218 70.1266L700.126 69.8069C695.256 52.8434 690.007 35.3861 684.354 17.2403C677.132 -5.94572 641.932 -5.54702 650.269 17.2406ZM255.057 904.175L254.288 903.946C256.152 906.439 257.941 908.833 259.641 911.109L255.865 904.415C255.596 904.335 255.327 904.255 255.057 904.175ZM238.986 883.496C240.291 882.838 241.564 882.196 242.801 881.573L238.643 883.039L238.986 883.496ZM189.947 866.13C189.407 866.062 188.866 865.994 188.324 865.926L188.773 866.723C186.781 867.729 184.735 868.762 182.643 869.819L181.048 867.693L200.325 860.893C197.091 862.524 193.615 864.278 189.947 866.13ZM462.565 980.032L454.625 981.514C457.639 981.343 460.918 981.159 464.397 980.964C463.782 980.652 463.172 980.342 462.565 980.032ZM502.945 997.873L504.908 997.507C503.738 996.42 502.57 995.344 501.404 994.277C498.606 987.748 495.985 981.638 493.62 976.129L508.671 1001.61C495.114 1002.35 482.093 1003.07 472.026 1003.64L500.826 998.269C501.311 998.486 501.797 998.704 502.286 998.922L502.86 999.178C503.125 999.296 503.39 999.414 503.656 999.532L502.945 997.873ZM244.23 973.172C255.16 977.843 265.501 982.274 273.706 985.797L251.582 972.728C249.163 972.882 246.713 973.03 244.23 973.172ZM272.258 956.319L272.765 956.536L274.212 954.996L275.388 953.745L272.258 956.319ZM300.423 968.376C301.988 969.047 303.496 969.695 304.938 970.314L301.449 968.253C301.108 968.294 300.766 968.335 300.423 968.376ZM361.932 978.782C360.806 979.593 359.659 980.412 358.492 981.238C363.571 979.703 368.291 978.279 372.377 977.048L361.932 978.782ZM189.36 878.78C192.241 880.351 195.171 881.873 198.15 883.344L214.62 912.541C207.453 902.947 198.718 891.269 189.36 878.78Z" fill="black" fill-opacity="0.25"/>
</svg>
