<svg width="100%" height="100%" viewBox="0 0 3840 600" fill="none" xmlns="http://www.w3.org/2000/svg">
<path fill-rule="evenodd" clip-rule="evenodd" d="M3439.09 536.544H3130.6C3130.56 536.544 3130.53 536.544 3130.5 536.544C3130.47 536.544 3130.43 536.544 3130.4 536.544H3128.15V536.526C3054.4 535.414 2995 482.021 2995 416.318C2995 349.919 3055.66 296.092 3130.5 296.092C3147.08 296.092 3162.97 298.736 3177.66 303.574C3196.94 263.095 3239.24 235 3288.32 235C3347.58 235 3396.96 275.967 3407.87 330.236C3417.82 327.89 3428.29 326.638 3439.09 326.638C3505.27 326.638 3558.93 373.627 3558.93 431.591C3558.93 487.946 3508.21 533.926 3444.57 536.436V536.544H3439.09Z" fill="white"/>
<path fill-rule="evenodd" clip-rule="evenodd" d="M2180.19 386.2H1893.53H1892.35V386.196C1829.09 385.676 1778 343.272 1778 291.038C1778 238.481 1829.72 195.875 1893.53 195.875C1903.18 195.875 1912.55 196.85 1921.51 198.685C1936.84 161.16 1981.64 134 2034.51 134C2072.57 134 2106.44 148.074 2128.15 169.957C2143.85 162.48 2161.51 158.28 2180.19 158.28C2245.29 158.28 2298.07 209.302 2298.07 272.24C2298.07 332.763 2249.26 382.266 2187.63 385.977V386.2H2180.19Z" fill="white"/>
<path fill-rule="evenodd" clip-rule="evenodd" d="M3439 536.544H3130.6C3130.56 536.544 3130.53 536.544 3130.5 536.544C3130.47 536.544 3130.43 536.544 3130.4 536.544H3128.15V536.526C3054.4 535.414 2995 482.021 2995 416.318C2995 349.919 3055.66 296.092 3130.5 296.092C3147.08 296.092 3162.97 298.736 3177.66 303.574C3196.94 263.095 3239.24 235 3288.32 235C3347.58 235 3396.96 275.967 3407.87 330.236C3417.82 327.89 3428.29 326.638 3439.09 326.638C3505.27 326.638 3558.93 373.627 3558.93 431.591C3558.93 487.946 3508.21 533.926 3444.57 536.436V536.544H3439.18C3439.15 536.544 3439.12 536.544 3439.09 536.544C3439.06 536.544 3439.03 536.544 3439 536.544Z" fill="#FFFFF4" fill-opacity="0.5"/>
<path fill-rule="evenodd" clip-rule="evenodd" d="M2180.19 386.2H1893.53H1892.35V386.196C1829.09 385.676 1778 343.272 1778 291.038C1778 238.481 1829.72 195.875 1893.53 195.875C1903.18 195.875 1912.55 196.85 1921.51 198.685C1936.84 161.16 1981.64 134 2034.51 134C2072.57 134 2106.44 148.074 2128.15 169.957C2143.85 162.48 2161.51 158.28 2180.19 158.28C2245.29 158.28 2298.07 209.302 2298.07 272.24C2298.07 332.763 2249.26 382.266 2187.63 385.977V386.2H2180.19Z" fill="#FFFFF4" fill-opacity="0.5"/>
</svg>
