<svg width="100%" height="100%" viewBox="0 0 3840 600" fill="none" xmlns="http://www.w3.org/2000/svg">
<path fill-rule="evenodd" clip-rule="evenodd" d="M3050.55 419.507H2835.26V419.495C2784.16 418.751 2743 383.071 2743 339.166C2743 294.794 2785.03 258.825 2836.89 258.825C2848.38 258.825 2859.39 260.591 2869.56 263.825C2882.93 236.775 2912.23 218 2946.24 218C2987.3 218 3021.52 245.376 3029.08 281.642C3035.97 280.074 3043.23 279.237 3050.71 279.237C3096.57 279.237 3133.74 310.638 3133.74 349.372C3133.74 387.031 3098.6 417.758 3054.51 419.435V419.507H3050.87C3050.81 419.507 3050.76 419.507 3050.71 419.507C3050.66 419.507 3050.61 419.507 3050.55 419.507Z" fill="#F3F4FF" fill-opacity="0.5"/>
<path fill-rule="evenodd" clip-rule="evenodd" d="M1016.55 419.507H801.259V419.495C750.158 418.751 709 383.071 709 339.166C709 294.794 751.035 258.825 802.887 258.825C814.379 258.825 825.388 260.591 835.565 263.825C848.927 236.775 878.235 218 912.241 218C953.304 218 987.517 245.376 995.076 281.642C1001.97 280.074 1009.23 279.237 1016.71 279.237C1062.57 279.237 1099.74 310.638 1099.74 349.372C1099.74 387.031 1064.6 417.758 1020.51 419.435V419.507H1016.87C1016.81 419.507 1016.76 419.507 1016.71 419.507C1016.66 419.507 1016.61 419.507 1016.55 419.507Z" fill="#F3F4FF" fill-opacity="0.5"/>
<path fill-rule="evenodd" clip-rule="evenodd" d="M1857.23 302.53C1813.4 302.183 1778 273.846 1778 238.941C1778 203.82 1813.84 175.348 1858.05 175.348C1864.73 175.348 1871.23 175.999 1877.44 177.226C1888.06 152.149 1919.1 134 1955.73 134C1982.1 134 2005.58 143.405 2020.62 158.028C2031.49 153.032 2043.73 150.225 2056.68 150.225C2101.78 150.225 2138.35 184.321 2138.35 226.379C2138.35 266.823 2104.54 299.904 2061.83 302.384V302.533L1858.05 302.533L1857.23 302.533V302.53Z" fill="#F3F4FF" fill-opacity="0.5"/>
</svg>
