<svg width="current" height="current" viewBox="0 0 886 620" fill="none" xmlns="http://www.w3.org/2000/svg">
<path fill-rule="evenodd" clip-rule="evenodd" d="M796.872 36.5518C689.348 213.459 555.938 306.593 482.559 350.23C473.57 339.663 458.157 327.006 436.785 313.054C422.228 303.551 401.61 290.457 377.202 276.503L383.411 313.893C379.965 302.45 375.652 288.168 371.063 273.02C360.703 267.191 349.727 261.253 338.294 255.4L345.965 301.597C341.837 287.889 336.465 270.106 330.863 251.64C318.737 245.581 306.153 239.659 293.293 234.095L301.254 282.036C297.038 268.037 291.526 249.79 285.795 230.905C276.071 226.841 266.212 223.002 256.295 219.481L263.249 261.357C259.56 249.107 254.878 233.603 249.926 217.266C227.739 209.719 205.346 203.858 183.607 200.717C187.88 230.629 204.417 262.862 230.822 290.869L255.613 282.124C249.026 285.446 241.43 289.281 233.259 293.412C242.569 302.978 253.044 312.018 264.585 320.263C253.75 319.188 242.747 318.294 231.669 317.636L258.957 366.01C248.958 352.624 235.905 335.183 222.37 317.142C210.338 316.578 198.25 316.308 186.223 316.403L210.06 358.657C201.309 346.944 190.221 332.124 178.517 316.515C151.74 317.083 125.4 319.541 100.826 324.664C117.108 355.118 147.466 383.27 186.771 403.026L209.977 383.945C204.201 390.088 197.542 397.175 190.382 404.805C207.965 413.296 227.259 420.115 247.824 424.74L271.975 404.882C266.203 411.021 259.549 418.103 252.394 425.728C267.731 428.905 283.743 430.862 300.255 431.388L325.674 410.487C319.857 416.674 313.144 423.819 305.925 431.512C310.728 431.569 315.572 431.504 320.45 431.313C324.698 431.146 328.864 430.964 332.949 430.767C328.19 433.312 323.475 435.949 318.836 438.676L344.942 454.098C336.545 450.493 325.912 445.936 314.699 441.145C300.383 449.82 286.895 459.382 275.195 469.834C293.524 481.23 318.753 486.98 346.201 485.391L352.799 467.811C351.592 472.941 350.203 478.858 348.712 485.226C360.882 484.327 373.457 481.989 386.033 478.065L392.9 459.769C391.694 464.896 390.306 470.809 388.815 477.172C398.109 474.099 407.388 470.154 416.49 465.279L423.717 446.022C422.501 451.189 421.101 457.154 419.598 463.574C422.215 462.104 424.816 460.555 427.397 458.927C433.322 455.189 438.907 451.57 444.16 448.069L450.706 430.626C449.792 434.512 448.773 438.85 447.684 443.493C444.785 448.703 441.851 454.168 438.953 459.829L465.351 455.445C457.518 457.805 447.356 460.874 436.804 464.075C433.342 471.004 429.958 478.195 426.778 485.544L454.173 480.995C446.174 483.404 435.747 486.554 424.956 489.828C422.633 495.385 420.439 501.018 418.427 506.685L442.357 502.712C435.357 504.82 426.497 507.495 417.162 510.325C412.85 523.003 409.5 535.799 407.705 548.221C424.798 545.78 443.216 536.33 459.22 521.241L454.224 507.075C456.122 510.839 458.313 515.18 460.674 519.849C467.67 513.04 474.174 505.141 479.863 496.269L474.663 481.526C476.56 485.288 478.75 489.625 481.109 494.291C485.224 487.628 488.882 480.439 491.953 472.772L486.48 457.254C488.392 461.045 490.601 465.421 492.981 470.129C493.829 467.881 494.627 465.595 495.371 463.27C497.08 457.933 498.642 452.843 500.061 447.996L495.103 433.94C496.809 437.323 498.752 441.172 500.841 445.306C502.187 440.621 503.396 436.172 504.473 431.957C510.191 441.339 517.331 451.982 526.003 463.906C526.69 458.157 527.327 452.806 527.885 448.103L528.07 466.733C531.809 471.819 535.819 477.13 540.108 482.669C541.977 485.082 543.891 487.427 545.848 489.703C546.631 483.156 547.356 477.072 547.98 471.801L548.186 492.368C555.071 500.062 562.441 506.943 570.123 513.009C570.899 506.52 571.617 500.489 572.237 495.259L572.432 514.801C582.908 522.789 593.925 529.287 605.053 534.294C605.83 527.8 606.548 521.765 607.169 516.532L607.356 535.308C632.605 546.189 658.28 549.414 679.401 544.975C671.982 531.151 662.577 517.553 652.092 504.504C639.916 505.172 628.366 505.817 619.243 506.333L649.049 500.77C644.263 494.974 639.278 489.294 634.174 483.76C620.099 484.528 606.504 485.286 596.078 485.876L630.201 479.507C623.594 472.52 616.828 465.784 610.073 459.361C618.942 463.237 628.317 467.2 638.21 471.246C642.729 473.095 647.258 474.812 651.791 476.401C647.638 466.703 643.774 457.693 640.424 449.89L657.162 478.224C672.857 483.377 688.574 487.015 704.072 489.275C699.956 479.662 696.126 470.731 692.801 462.989L708.705 489.91C729.611 492.597 750.074 492.788 769.5 490.823C765.381 481.204 761.549 472.267 758.222 464.519L773.502 490.387C817.194 485.264 855.35 469.194 881.065 446.145C859.725 432.926 835.815 421.607 810.847 411.916C794.51 422.58 779.022 432.714 766.793 440.728L803.643 409.175C792.375 404.972 780.923 401.091 769.424 397.506C750.535 409.829 732.304 421.755 718.33 430.913L760.517 394.791C745.171 390.215 729.803 386.155 714.736 382.552C696.267 394.603 678.5 406.225 664.816 415.193L705.469 380.384C691.16 377.11 677.188 374.245 663.836 371.738C648.69 381.628 634.423 390.964 623 398.45L655.903 370.277C624.284 364.564 596.614 360.88 576.888 358.506C556.45 356.047 539.084 355.202 525.139 355.849C650.554 271.836 721.612 200.05 856.484 40.0706C857.42 38.9613 858.212 37.7811 858.866 36.5518H796.872ZM354.288 360.946C354.815 361.103 355.341 361.259 355.865 361.415L359.641 368.109C357.941 365.833 356.152 363.439 354.288 360.946ZM342.801 338.572C341.564 339.196 340.291 339.838 338.986 340.496L338.643 340.039L342.801 338.572ZM288.324 322.926C288.866 322.994 289.407 323.062 289.947 323.13C293.615 321.278 297.091 319.524 300.325 317.893L281.048 324.692L282.643 326.819C284.735 325.762 286.781 324.729 288.773 323.723L288.324 322.926ZM554.625 438.514L562.565 437.032C563.172 437.342 563.782 437.652 564.397 437.964C560.918 438.159 557.639 438.343 554.625 438.514ZM604.908 454.507L602.945 454.873L603.656 456.532C603.39 456.414 603.125 456.296 602.86 456.178C602.668 456.092 602.477 456.007 602.286 455.922C601.797 455.704 601.311 455.486 600.826 455.269L572.026 460.644C582.093 460.074 595.114 459.348 608.671 458.608L593.62 433.129C595.985 438.638 598.606 444.748 601.404 451.277C602.57 452.344 603.738 453.42 604.908 454.507ZM373.706 442.797C365.501 439.274 355.16 434.843 344.23 430.172C346.713 430.03 349.163 429.882 351.582 429.728L373.706 442.797ZM372.765 413.536L372.258 413.319L375.388 410.745L374.212 411.996L372.765 413.536ZM404.938 427.314C403.496 426.695 401.988 426.047 400.423 425.376C400.766 425.335 401.108 425.294 401.449 425.253L404.938 427.314ZM458.492 438.238C459.659 437.412 460.806 436.593 461.932 435.782L472.377 434.048C468.291 435.279 463.57 436.703 458.492 438.238ZM298.15 340.344C295.171 338.873 292.241 337.351 289.36 335.78C298.718 348.269 307.453 359.947 314.62 369.541L298.15 340.344Z" fill="black" fill-opacity="0.25"/>
</svg>
