<svg width="100%" height="100%" viewBox="0 0 231 223" fill="none" xmlns="http://www.w3.org/2000/svg">
<g filter="url(#filter0_d_147_166)">
<path d="M163.738 119.385C152.985 115.471 95.7221 94.629 85.3642 90.859C75.0064 87.089 38.6518 153.67 64.5464 163.095L132.563 187.851C152.933 195.265 174.787 123.406 163.738 119.385Z" fill="#8EFFEA"/>
<path d="M172.243 110.291L102.456 157.639C97.6332 160.911 96.7729 168.468 100.837 171.857C102.525 173.265 104.771 173.634 106.947 172.862L182.766 145.955C193.335 142.204 199.49 128.636 195.581 117.704C191.964 107.587 181.247 104.183 172.243 110.291Z" fill="#D5FFF7"/>
<path d="M160.128 79.1264L97.0094 159.339C94.8956 162.025 94.7104 166.056 96.572 168.856C98.4659 171.705 101.903 172.418 104.626 170.527L184.615 114.989C194.502 108.124 197.022 92.664 189.901 82.5553L187.731 79.4738C180.761 69.579 167.77 69.4155 160.128 79.1264Z" fill="#8EFFEA"/>
<path d="M145.154 56.6502L93.2291 160.075C91.4766 163.566 93.1459 168.037 96.6825 169.324C98.7969 170.093 101.09 169.507 102.609 167.808L177.934 83.5772C186.023 74.5313 184.544 59.4644 174.824 51.897L172.721 50.259C163.357 42.9692 150.529 45.9434 145.154 56.6502Z" fill="#D5FFF7"/>
<path d="M117.963 46.2106L93.4092 165.013C92.6373 168.747 95.9904 172.027 99.7073 171.174C101.24 170.822 102.533 169.799 103.229 168.39L156.928 59.6402C162.202 48.9596 157.029 36.0654 145.836 31.9913L144.389 31.4647C132.927 27.2927 120.431 34.2649 117.963 46.2106Z" fill="#8EFFEA"/>
<path d="M87.4185 50.789L92.6578 166.077C92.8071 169.362 95.8509 171.523 99.1774 170.705C101.46 170.143 103.293 168.294 103.802 166.037L129.804 50.7411C132.417 39.1545 124.512 28.7784 112.744 28.3474L110.154 28.2525C97.7339 27.7977 86.8634 38.5732 87.4185 50.789Z" fill="#D5FFF7"/>
<path d="M62.5245 68.0782L89.4547 168.839C90.2441 171.793 92.9902 173.434 96.0348 172.772C99.5492 172.008 102.257 168.461 102.117 164.805L97.9664 56.7867C97.3541 40.8486 79.0865 35.8051 67.7664 48.4488C62.8033 53.9922 60.7824 61.5599 62.5245 68.0782Z" fill="#8EFFEA"/>
<path d="M46.4968 98.1207L94.4623 169.342C94.6932 169.685 95.009 169.937 95.3758 170.07C97.0939 170.696 98.9063 168.607 98.3655 166.625L74.3783 78.7114C70.8663 65.8396 55.9848 64.005 47.7527 75.4289C42.7623 82.3542 42.2395 91.7993 46.4968 98.1207Z" fill="#D5FFF7"/>
</g>
<defs>
<filter id="filter0_d_147_166" x="-5" y="0" width="240.71" height="232.073" filterUnits="userSpaceOnUse" color-interpolation-filters="sRGB">
<feFlood flood-opacity="0" result="BackgroundImageFix"/>
<feColorMatrix in="SourceAlpha" type="matrix" values="0 0 0 0 0 0 0 0 0 0 0 0 0 0 0 0 0 0 127 0" result="hardAlpha"/>
<feOffset dy="5"/>
<feGaussianBlur stdDeviation="2.5"/>
<feComposite in2="hardAlpha" operator="out"/>
<feColorMatrix type="matrix" values="0 0 0 0 0 0 0 0 0 0 0 0 0 0 0 0 0 0 0.25 0"/>
<feBlend mode="normal" in2="BackgroundImageFix" result="effect1_dropShadow_147_166"/>
<feBlend mode="normal" in="SourceGraphic" in2="effect1_dropShadow_147_166" result="shape"/>
</filter>
</defs>
</svg>
