<svg width="100%" height="100%" viewBox="0 0 244 239" fill="none" xmlns="http://www.w3.org/2000/svg">
<g filter="url(#filter0_d_147_175)">
<path d="M84.4691 151.017C94.3791 145.295 147.153 114.826 156.699 109.315C166.245 103.804 138.609 33.157 114.744 46.9352L52.0602 83.126C33.2867 93.9649 74.287 156.896 84.4691 151.017Z" fill="#8EFFEA"/>
<path d="M85.9684 163.377L94.5566 79.4826C95.1501 73.6854 89.9136 68.1685 84.7051 69.1034C82.5415 69.4918 80.8152 70.9748 80.0079 73.1383L51.8848 148.514C47.9646 159.021 54.4022 172.458 65.2884 176.49C75.3639 180.222 84.8604 174.201 85.9684 163.377Z" fill="#D5FFF7"/>
<path d="M117.63 174.129L96.7553 74.2179C96.0562 70.8719 93.0873 68.1389 89.7455 67.765C86.3457 67.3846 83.5906 69.5589 83.2885 72.8608L74.4178 169.835C73.3213 181.822 83.5444 193.689 95.865 194.733L99.6208 195.051C111.681 196.072 120.157 186.225 117.63 174.129Z" fill="#8EFFEA"/>
<path d="M144.473 177.106L98.621 70.8485C97.0735 67.2623 92.5758 65.6674 89.3165 67.5491C87.3678 68.6742 86.3427 70.8081 86.6676 73.0636L102.775 184.908C104.505 196.919 116.997 205.471 129.042 202.89L131.649 202.331C143.252 199.844 149.219 188.106 144.473 177.106Z" fill="#D5FFF7"/>
<path d="M169.948 162.986L94.723 67.8129C92.3581 64.821 87.6902 65.2811 85.9551 68.6773C85.2398 70.0774 85.1917 71.7249 85.8242 73.1644L134.614 184.203C139.405 195.109 152.608 199.434 162.924 193.478L164.257 192.709C174.821 186.61 177.512 172.556 169.948 162.986Z" fill="#8EFFEA"/>
<path d="M186.074 136.645L94.3903 66.5529C91.778 64.5558 88.1666 65.4988 86.6549 68.5728C85.6173 70.6826 85.8562 73.2749 87.2578 75.1153L158.866 169.145C166.062 178.595 179.092 179.209 186.987 170.471L188.724 168.548C197.056 159.326 195.789 144.072 186.074 136.645Z" fill="#D5FFF7"/>
<path d="M188.831 106.462L94.3334 62.3239C91.5632 61.0299 88.5408 62.0785 87.0911 64.8366C85.4177 68.0202 86.3944 72.3745 89.2847 74.6164L174.699 140.87C187.302 150.646 202.908 139.894 200.499 123.095C199.443 115.73 194.944 109.318 188.831 106.462Z" fill="#8EFFEA"/>
<path d="M176.12 74.8732L90.7293 65.8365C90.3183 65.793 89.9224 65.8732 89.5844 66.0683C88.001 66.9825 88.436 69.7134 90.3018 70.5731L173.066 108.708C185.184 114.291 196.155 104.071 192.696 90.4212C190.598 82.1468 183.699 75.6752 176.12 74.8732Z" fill="#D5FFF7"/>
</g>
<defs>
<filter id="filter0_d_147_175" x="-5.00003" y="0" width="253.929" height="248.639" filterUnits="userSpaceOnUse" color-interpolation-filters="sRGB">
<feFlood flood-opacity="0" result="BackgroundImageFix"/>
<feColorMatrix in="SourceAlpha" type="matrix" values="0 0 0 0 0 0 0 0 0 0 0 0 0 0 0 0 0 0 127 0" result="hardAlpha"/>
<feOffset dy="5"/>
<feGaussianBlur stdDeviation="2.5"/>
<feComposite in2="hardAlpha" operator="out"/>
<feColorMatrix type="matrix" values="0 0 0 0 0 0 0 0 0 0 0 0 0 0 0 0 0 0 0.25 0"/>
<feBlend mode="normal" in2="BackgroundImageFix" result="effect1_dropShadow_147_175"/>
<feBlend mode="normal" in="SourceGraphic" in2="effect1_dropShadow_147_175" result="shape"/>
</filter>
</defs>
</svg>
