<svg width="100%" height="100%" viewBox="0 0 249 250" fill="none" xmlns="http://www.w3.org/2000/svg">
<g filter="url(#filter0_d_147_102)">
<g filter="url(#filter1_i_147_102)">
<path d="M90.8951 116.396L79.5388 60.3023C78.5937 55.6341 84.0923 52.4135 87.7017 55.5211L131.355 93.1055C132.965 94.4922 135.276 94.7092 137.117 93.6465L179.473 69.1921C183.593 66.8133 188.394 70.99 186.608 75.3995L167.467 122.65C166.661 124.638 167.214 126.919 168.84 128.318L211.19 164.757C214.809 167.871 212.421 173.802 207.653 173.54L151.603 170.452C149.648 170.344 147.81 171.387 146.9 173.122L120.099 224.228C117.876 228.467 111.541 227.46 110.741 222.742L101.323 167.197C100.97 165.116 99.3473 163.48 97.2685 163.111L49.2446 154.571C44.6522 153.754 43.5805 147.65 47.62 145.318L88.4946 121.719C90.355 120.645 91.3214 118.502 90.8951 116.396Z" fill="#FF4487"/>
</g>
</g>
<defs>
<filter id="filter0_d_147_102" x="-5" y="0" width="258.318" height="259.599" filterUnits="userSpaceOnUse" color-interpolation-filters="sRGB">
<feFlood flood-opacity="0" result="BackgroundImageFix"/>
<feColorMatrix in="SourceAlpha" type="matrix" values="0 0 0 0 0 0 0 0 0 0 0 0 0 0 0 0 0 0 127 0" result="hardAlpha"/>
<feOffset dy="5"/>
<feGaussianBlur stdDeviation="2.5"/>
<feComposite in2="hardAlpha" operator="out"/>
<feColorMatrix type="matrix" values="0 0 0 0 0 0 0 0 0 0 0 0 0 0 0 0 0 0 0.25 0"/>
<feBlend mode="normal" in2="BackgroundImageFix" result="effect1_dropShadow_147_102"/>
<feBlend mode="normal" in="SourceGraphic" in2="effect1_dropShadow_147_102" result="shape"/>
</filter>
<filter id="filter1_i_147_102" x="45.1172" y="54.2915" width="167.824" height="172.617" filterUnits="userSpaceOnUse" color-interpolation-filters="sRGB">
<feFlood flood-opacity="0" result="BackgroundImageFix"/>
<feBlend mode="normal" in="SourceGraphic" in2="BackgroundImageFix" result="shape"/>
<feColorMatrix in="SourceAlpha" type="matrix" values="0 0 0 0 0 0 0 0 0 0 0 0 0 0 0 0 0 0 127 0" result="hardAlpha"/>
<feOffset/>
<feGaussianBlur stdDeviation="20"/>
<feComposite in2="hardAlpha" operator="arithmetic" k2="-1" k3="1"/>
<feColorMatrix type="matrix" values="0 0 0 0 0.9625 0 0 0 0 0.65843 0 0 0 0 0.0681771 0 0 0 1 0"/>
<feBlend mode="normal" in2="shape" result="effect1_innerShadow_147_102"/>
</filter>
</defs>
</svg>
