<svg width="100%" height="100%" viewBox="0 0 233 235" fill="none" xmlns="http://www.w3.org/2000/svg">
<g filter="url(#filter0_d_147_78)">
<g filter="url(#filter1_i_147_78)">
<path d="M101.329 86.4363L136.999 41.6802C139.968 37.9556 145.97 40.0976 145.909 44.8601L145.177 102.459C145.15 104.584 146.47 106.494 148.467 107.221L194.426 123.949C198.897 125.576 198.783 131.938 194.257 133.404L145.757 149.114C143.716 149.775 142.325 151.663 142.298 153.808L141.606 209.673C141.547 214.447 135.468 216.43 132.605 212.609L98.9424 167.687C97.7681 166.12 95.787 165.383 93.8738 165.801L37.4964 178.12C32.8205 179.142 29.5195 173.643 32.62 169.996L69.1155 127.079C70.4832 125.47 70.6932 123.176 69.6402 121.346L45.3131 79.068C42.9867 75.0251 46.9738 70.2805 51.3569 71.8759L95.7084 88.0185C97.7271 88.7532 99.9896 88.1163 101.329 86.4363Z" fill="#FF6A3C"/>
</g>
</g>
<defs>
<filter id="filter0_d_147_78" x="-5" y="0" width="242.546" height="244.638" filterUnits="userSpaceOnUse" color-interpolation-filters="sRGB">
<feFlood flood-opacity="0" result="BackgroundImageFix"/>
<feColorMatrix in="SourceAlpha" type="matrix" values="0 0 0 0 0 0 0 0 0 0 0 0 0 0 0 0 0 0 127 0" result="hardAlpha"/>
<feOffset dy="5"/>
<feGaussianBlur stdDeviation="2.5"/>
<feComposite in2="hardAlpha" operator="out"/>
<feColorMatrix type="matrix" values="0 0 0 0 0 0 0 0 0 0 0 0 0 0 0 0 0 0 0.25 0"/>
<feBlend mode="normal" in2="BackgroundImageFix" result="effect1_dropShadow_147_78"/>
<feBlend mode="normal" in="SourceGraphic" in2="effect1_dropShadow_147_78" result="shape"/>
</filter>
<filter id="filter1_i_147_78" x="31.4097" y="39.7861" width="166.306" height="174.834" filterUnits="userSpaceOnUse" color-interpolation-filters="sRGB">
<feFlood flood-opacity="0" result="BackgroundImageFix"/>
<feBlend mode="normal" in="SourceGraphic" in2="BackgroundImageFix" result="shape"/>
<feColorMatrix in="SourceAlpha" type="matrix" values="0 0 0 0 0 0 0 0 0 0 0 0 0 0 0 0 0 0 127 0" result="hardAlpha"/>
<feOffset/>
<feGaussianBlur stdDeviation="20"/>
<feComposite in2="hardAlpha" operator="arithmetic" k2="-1" k3="1"/>
<feColorMatrix type="matrix" values="0 0 0 0 0.9625 0 0 0 0 0.65843 0 0 0 0 0.0681771 0 0 0 1 0"/>
<feBlend mode="normal" in2="shape" result="effect1_innerShadow_147_78"/>
</filter>
</defs>
</svg>
