<svg width="100%" height="100%" viewBox="0 0 210 213" fill="none" xmlns="http://www.w3.org/2000/svg">
<g filter="url(#filter0_d_147_30)">
<g filter="url(#filter1_i_147_30)">
<path d="M76.4709 87.0011L84.9847 30.4058C85.6932 25.6959 91.9618 24.5501 94.2906 28.7048L122.456 78.9527C123.496 80.8066 125.593 81.801 127.686 81.432L175.852 72.9391C180.537 72.1129 183.62 77.6795 180.433 81.2121L146.286 119.067C144.849 120.66 144.588 122.991 145.638 124.862L172.97 173.588C175.306 177.753 171.034 182.509 166.644 180.632L115.03 158.56C113.229 157.79 111.145 158.142 109.697 159.46L67.0325 198.318C63.494 201.54 57.8855 198.428 58.7475 193.721L68.8947 138.305C69.2749 136.228 68.3097 134.136 66.4827 133.078L24.2759 108.628C20.2398 106.29 21.3204 100.187 25.9139 99.3772L72.3947 91.1814C74.5104 90.8083 76.1513 89.1255 76.4709 87.0011Z" fill="#FDC685"/>
</g>
</g>
<defs>
<filter id="filter0_d_147_30" x="-5" y="0" width="219.709" height="222.548" filterUnits="userSpaceOnUse" color-interpolation-filters="sRGB">
<feFlood flood-opacity="0" result="BackgroundImageFix"/>
<feColorMatrix in="SourceAlpha" type="matrix" values="0 0 0 0 0 0 0 0 0 0 0 0 0 0 0 0 0 0 127 0" result="hardAlpha"/>
<feOffset dy="5"/>
<feGaussianBlur stdDeviation="2.5"/>
<feComposite in2="hardAlpha" operator="out"/>
<feColorMatrix type="matrix" values="0 0 0 0 0 0 0 0 0 0 0 0 0 0 0 0 0 0 0.25 0"/>
<feBlend mode="normal" in2="BackgroundImageFix" result="effect1_dropShadow_147_30"/>
<feBlend mode="normal" in="SourceGraphic" in2="effect1_dropShadow_147_30" result="shape"/>
</filter>
<filter id="filter1_i_147_30" x="21.7793" y="26.1462" width="159.959" height="173.493" filterUnits="userSpaceOnUse" color-interpolation-filters="sRGB">
<feFlood flood-opacity="0" result="BackgroundImageFix"/>
<feBlend mode="normal" in="SourceGraphic" in2="BackgroundImageFix" result="shape"/>
<feColorMatrix in="SourceAlpha" type="matrix" values="0 0 0 0 0 0 0 0 0 0 0 0 0 0 0 0 0 0 127 0" result="hardAlpha"/>
<feOffset/>
<feGaussianBlur stdDeviation="20"/>
<feComposite in2="hardAlpha" operator="arithmetic" k2="-1" k3="1"/>
<feColorMatrix type="matrix" values="0 0 0 0 0.9625 0 0 0 0 0.65843 0 0 0 0 0.0681771 0 0 0 1 0"/>
<feBlend mode="normal" in2="shape" result="effect1_innerShadow_147_30"/>
</filter>
</defs>
</svg>
