<svg width="100%" height="100%" viewBox="0 0 180 180" fill="none" xmlns="http://www.w3.org/2000/svg">
<rect x="78.9336" y="144" width="18" height="36" fill="#9D9D9D"/>
<path fill-rule="evenodd" clip-rule="evenodd" d="M141.934 18H158.316C159.059 18 159.542 18.7823 159.21 19.4472L142.21 53.4472C142.143 53.5817 142.048 53.6966 141.934 53.7862V54H141.316H133.934H132.934V53V19V18H133.934H141.934Z" fill="#9D9D9D"/>
<path fill-rule="evenodd" clip-rule="evenodd" d="M37.3833 18H21.0013C20.258 18 19.7745 18.7823 20.1069 19.4472L37.1069 53.4472C37.1742 53.5817 37.2693 53.6966 37.3833 53.7862V54H38.0013H45.3833H46.3833V53V19V18H45.3833H37.3833Z" fill="#9D9D9D"/>
<path fill-rule="evenodd" clip-rule="evenodd" d="M141.934 72H158.316C159.059 72 159.542 72.7823 159.21 73.4472L142.21 107.447C142.143 107.582 142.048 107.697 141.934 107.786V108H141.316H133.934H132.934V107V73V72H133.934H141.934Z" fill="#9D9D9D"/>
<path fill-rule="evenodd" clip-rule="evenodd" d="M37.3833 72H21.0013C20.258 72 19.7745 72.7823 20.1069 73.4472L37.1069 107.447C37.1742 107.582 37.2693 107.697 37.3833 107.786V108H38.0013H45.3833H46.3833V107V73V72H45.3833H37.3833Z" fill="#9D9D9D"/>
<path fill-rule="evenodd" clip-rule="evenodd" d="M51.9336 0H123.934V135H51.9336V0ZM105.933 36C105.933 45.9411 97.8746 54 87.9335 54C77.9924 54 69.9335 45.9411 69.9335 36C69.9335 26.0589 77.9924 18 87.9335 18C97.8746 18 105.933 26.0589 105.933 36ZM87.9335 108C97.8746 108 105.933 99.9411 105.933 90C105.933 80.0589 97.8746 72 87.9335 72C77.9924 72 69.9335 80.0589 69.9335 90C69.9335 99.9411 77.9924 108 87.9335 108Z" fill="#9D9D9D"/>
</svg>
