<svg width="100%" height="100%" viewBox="0 0 80 45" fill="none" xmlns="http://www.w3.org/2000/svg">
<g clip-path="url(#clip0_204_1193)">
<path d="M0 35V10C0 4.47715 4.47715 0 10 0H67.1482C70.4917 0 73.6821 1.63894 75.2492 4.59247C81.5836 16.5308 81.5836 28.4692 75.2492 40.4075C73.6821 43.3611 70.4917 45 67.1482 45H10C4.47715 45 0 40.5228 0 35Z" fill="#6075BF"/>
<rect x="70.5652" y="34" width="3" height="7.5" rx="1.5" transform="rotate(20 70.5652 34)" fill="white"/>
<rect x="68" y="4" width="3" height="7.5" rx="1.5" transform="rotate(-20 68 4)" fill="white"/>
<rect x="14.5" y="3" width="6" height="39" rx="3" fill="white" fill-opacity="0.15"/>
<path d="M45.226 6.65097C44.8755 4.76886 46.3105 3 48.225 3H53.4913C54.9018 3 56.1192 3.97963 56.3885 5.36415C57.1382 9.21878 58.5 16.9808 58.5 22.5C58.5 28.0192 57.1382 35.7812 56.3885 39.6358C56.1192 41.0204 54.9018 42 53.4913 42H48.225C46.3105 42 44.8755 40.2311 45.226 38.349C45.9929 34.23 47.0926 27.4595 47.0926 22.5C47.0926 17.5405 45.9929 10.77 45.226 6.65097Z" fill="white" fill-opacity="0.15"/>
</g>
<defs>
<clipPath id="clip0_204_1193">
<rect width="80" height="45" fill="white"/>
</clipPath>
</defs>
</svg>
