<svg width="100%" height="100%" viewBox="0 0 180 180" fill="none" xmlns="http://www.w3.org/2000/svg">
<rect x="81.9951" y="144" width="18" height="36" fill="#393939"/>
<path fill-rule="evenodd" clip-rule="evenodd" d="M144.995 18H161.377C162.12 18 162.604 18.7823 162.272 19.4472L145.272 53.4472C145.204 53.5817 145.109 53.6966 144.995 53.7862V54H144.377H136.995H135.995V53V19V18H136.995H144.995Z" fill="#393939"/>
<path fill-rule="evenodd" clip-rule="evenodd" d="M40.4448 18H24.0629C23.3195 18 22.836 18.7823 23.1684 19.4472L40.1684 53.4472C40.2357 53.5817 40.3308 53.6966 40.4448 53.7862V54H41.0629H48.4448H49.4448V53V19V18H48.4448H40.4448Z" fill="#393939"/>
<path fill-rule="evenodd" clip-rule="evenodd" d="M144.995 72H161.377C162.12 72 162.604 72.7823 162.272 73.4472L145.272 107.447C145.204 107.582 145.109 107.697 144.995 107.786V108H144.377H136.995H135.995V107V73V72H136.995H144.995Z" fill="#393939"/>
<path fill-rule="evenodd" clip-rule="evenodd" d="M40.4448 72H24.0629C23.3195 72 22.836 72.7823 23.1684 73.4472L40.1684 107.447C40.2357 107.582 40.3308 107.697 40.4448 107.786V108H41.0629H48.4448H49.4448V107V73V72H48.4448H40.4448Z" fill="#393939"/>
<rect x="54.9951" width="72" height="135" fill="#393939"/>
<circle cx="90.9951" cy="36" r="18" fill="#E25C57"/>
<circle cx="90.9951" cy="90" r="18" fill="#5D843A"/>
</svg>
